<svg width="500" height="500" xmlns="http://www.w3.org/2000/svg"><path fill="#272B37" d="M0 0v18.27L5.22 0H0zm62.98 0l-32 27.1a1.31 1.31 0 0 0-.13 1.89l4.9 5.53c.47.55 1.31.6 1.87.1L75.75.97c.3-.26.44-.61.45-.97H62.98zm182.27 0A4.75 4.75 0 0 0 250 4.75 4.75 4.75 0 0 0 254.75 0h-9.5zm178.54 0c0 .36.15.73.46 1l38.12 33.65c.56.47 1.4.42 1.88-.13l4.9-5.53c.5-.56.42-1.4-.14-1.88L437.01 0H423.8zm70.98 0l-18.22 63.83c-.24.85.24 1.72 1.09 1.96l6.61 1.88a1.6 1.6 0 0 0 1.96-1.11l13.78-48.28V0h-5.22zM84.17 78.07c-.38 0-.77.14-1.06.44l-4.6 4.6a1.5 1.5 0 0 0 0 2.12l86.27 86.26a1.5 1.5 0 0 0 2.12 0l4.6-4.6a1.5 1.5 0 0 0 0-2.12L85.23 78.51a1.5 1.5 0 0 0-1.06-.44zm331.68 0c-.39 0-.77.14-1.06.44l-86.27 86.26a1.5 1.5 0 0 0 0 2.13l4.6 4.6a1.5 1.5 0 0 0 2.12 0l86.27-86.27a1.5 1.5 0 0 0 0-2.13l-4.6-4.6a1.5 1.5 0 0 0-1.06-.43zm-150.57 104.2c-.67.02-1.29.46-1.48 1.15l-37.23 130.4c-.23.86.24 1.73 1.09 1.97l6.61 1.88a1.6 1.6 0 0 0 1.96-1.12l37.23-130.38a1.58 1.58 0 0 0-1.09-1.96l-6.61-1.88a1.63 1.63 0 0 0-.48-.06zm-51.92 32.74c-.34-.02-.69.1-.97.34l-38.12 33.66a1.3 1.3 0 0 0 0 1.98l38.12 33.66c.56.47 1.4.42 1.88-.14l4.9-5.53c.5-.55.42-1.4-.14-1.87l-32.01-27.12 32.01-27.12c.56-.48.64-1.33.14-1.88l-4.9-5.53a1.3 1.3 0 0 0-.9-.45zm73.32.02c-.34.02-.67.16-.92.43l-4.9 5.53c-.5.55-.42 1.4.14 1.88L313 249.99 281 277.1a1.31 1.31 0 0 0-.13 1.87l4.9 5.53c.47.56 1.31.61 1.87.11l38.13-33.65c.6-.53.6-1.46 0-1.99l-38.13-33.63a1.35 1.35 0 0 0-.96-.32zM.01 245.25v9.5A4.75 4.75 0 0 0 4.76 250 4.75 4.75 0 0 0 0 245.25zm500 0a4.75 4.75 0 0 0-4.75 4.75 4.75 4.75 0 0 0 4.75 4.75v-9.5zm-334.16 82.82c-.39 0-.77.14-1.06.44l-86.27 86.26a1.5 1.5 0 0 0 0 2.12l4.6 4.6a1.5 1.5 0 0 0 2.12 0l86.26-86.27a1.5 1.5 0 0 0 0-2.12l-4.6-4.6a1.5 1.5 0 0 0-1.05-.43zm168.33 0c-.39 0-.77.14-1.07.44l-4.6 4.6a1.5 1.5 0 0 0 0 2.11l86.27 86.27a1.5 1.5 0 0 0 2.13 0l4.6-4.6a1.5 1.5 0 0 0 0-2.12l-86.27-86.26a1.5 1.5 0 0 0-1.06-.44zm-318.9 104.2c-.68.01-1.3.46-1.49 1.15L.01 481.7V500h5.22l18.22-63.83a1.58 1.58 0 0 0-1.08-1.96l-6.62-1.88a1.63 1.63 0 0 0-.47-.06zm448.06 32.74c-.34-.02-.69.09-.97.34l-38.12 33.66c-.3.26-.46.62-.46.99h13.23l-.02-.02 32.01-27.12c.56-.47.64-1.32.14-1.87l-4.9-5.53a1.3 1.3 0 0 0-.9-.45zm-426.69.02c-.33.02-.66.16-.91.43l-4.9 5.53c-.5.55-.42 1.4.13 1.87L63 499.98l-.02.02H76.2c.01-.38-.14-.75-.45-1.02l-38.13-33.63a1.35 1.35 0 0 0-.96-.32zM500 481.7l-5.22 18.3h5.22v-18.3zm-250 13.55a4.75 4.75 0 0 0-4.75 4.75h9.5a4.75 4.75 0 0 0-4.75-4.75z" paint-order="markers stroke fill"/></svg>